<svg width="960" height="688" viewBox="0 0 960 688" class="keymap" xmlns="http://www.w3.org/2000/svg" xmlns:xlink="http://www.w3.org/1999/xlink">
<style>svg path {
    fill: inherit;
}
svg.keymap {
    font-family: Menlo,SFMono-Regular,Consolas,Liberation Mono,monospace;
    font-size: 14px;
    font-kerning: normal;
    text-rendering: optimizeLegibility;
    fill: #FFF;
    background: #141F26;
}
rect.key {
    fill: #72878C;
    stroke: #5A6E73;
    stroke-width: 1;
}
rect.side {
    filter: brightness(90%);
}
rect.combo, rect.combo-separate {
    fill: #54929b;
    stroke: #007772;
}
rect.held, rect.combo.held {
    stroke: #A65437;
    fill: #BF9278;
}
rect.ghost, rect.combo.ghost {
    stroke-dasharray: 4, 4;
    stroke-width: 2;
}
text {
    text-anchor: middle;
    dominant-baseline: middle;
}
text.label {
    text-anchor: start;
    stroke: white;
    paint-order: stroke;
}
text.combo, text.hold, text.shifted, text.left, text.right, text.tl, text.tr, text.bl, text.br {
    font-size: 11px;
}
text.hold, text.bl, text.br {
    text-anchor: middle;
    dominant-baseline: auto;
}
text.shifted, text.tl, text.tr {
    text-anchor: middle;
    dominant-baseline: hanging;
}
text.left, text.tl, text.bl {
    text-anchor: start;
}
text.right, text.tr, text.br {
    text-anchor: end;
}
text.layer-activator {
    text-decoration: underline;
}
text.combo.hold, text.combo.shifted, text.combo.left, text.combo.right {
    font-size: 8px;
}
text.trans {
    fill: #2C3A40;
}
path.combo {
    stroke-width: 1;
    stroke: gray;
    fill: none;
}
.icon-tabler > path {
    fill: inherit;
    stroke: inherit;
    stroke-width: 2;
}
.icon-tabler > path[stroke="none"][fill="none"] {
    visibility: hidden;
}</style>
<g transform="translate(30, 0)" class="layer-Default">
<text x="0" y="28" class="label" id="Default">Default</text>
<g transform="translate(0, 56)">
<g transform="translate(32, 65)" class="key keypos-0">
<rect rx="6" ry="6" x="-30" y="-63" width="61" height="126" class="key"/>
<text x="0" y="0" class="key tap">MB4</text>
<a href="#Bluetooth">
<text x="0" y="61" class="key hold layer-activator"><tspan style="font-size: 78%">Bluetooth</tspan></text>
</a></g>
<g transform="translate(98, 32)" class="key keypos-1">
<rect rx="6" ry="6" x="-30" y="-30" width="61" height="61" class="key"/>
<text x="0" y="0" class="key tap">MB5</text>
<a href="#Device">
<text x="0" y="28" class="key hold layer-activator">Device</text>
</a></g>
<g transform="translate(162, 32)" class="key keypos-2">
<rect rx="6" ry="6" x="-30" y="-30" width="61" height="61" class="key"/>
<a href="#Snipe">
<text x="0" y="0" class="key tap layer-activator">Snipe</text>
</a><text x="0" y="28" class="key hold">toggle</text>
</g>
<g transform="translate(228, 65)" class="key keypos-3">
<rect rx="6" ry="6" x="-30" y="-63" width="61" height="126" class="key"/>
<text x="0" y="0" class="key tap">MCLK</text>
<a href="#Scroll">
<text x="0" y="61" class="key hold layer-activator">Scroll</text>
</a></g>
<g transform="translate(49, 195)" class="key keypos-4">
<rect rx="6" ry="6" x="-47" y="-63" width="94" height="126" class="key"/>
<text x="0" y="0" class="key tap">LCLK</text>
</g>
<g transform="translate(211, 195)" class="key keypos-5">
<rect rx="6" ry="6" x="-47" y="-63" width="94" height="126" class="key"/>
<text x="0" y="0" class="key tap">RCLK</text>
</g>
</g>
</g>
<g transform="translate(350, 0)" class="layer-Scroll">
<text x="0" y="28" class="label" id="Scroll">Scroll</text>
<g transform="translate(0, 56)">
<g transform="translate(32, 65)" class="key trans keypos-0">
<rect rx="6" ry="6" x="-30" y="-63" width="61" height="126" class="key trans"/>
<text x="0" y="0" class="key trans tap">▽</text>
</g>
<g transform="translate(98, 32)" class="key trans keypos-1">
<rect rx="6" ry="6" x="-30" y="-30" width="61" height="61" class="key trans"/>
<text x="0" y="0" class="key trans tap">▽</text>
</g>
<g transform="translate(162, 32)" class="key keypos-2">
<rect rx="6" ry="6" x="-30" y="-30" width="61" height="61" class="key"/>
<a href="#Scroll-Lock">
<text x="0" y="0" class="key tap layer-activator">
<tspan x="0" dy="-0.9em">Scroll</tspan><tspan x="0" dy="1.2em">Lock</tspan>
</text>
</a><text x="0" y="28" class="key hold">toggle</text>
</g>
<g transform="translate(228, 65)" class="key held keypos-3">
<rect rx="6" ry="6" x="-30" y="-63" width="61" height="126" class="key held"/>
</g>
<g transform="translate(49, 195)" class="key keypos-4">
<rect rx="6" ry="6" x="-47" y="-63" width="94" height="126" class="key"/>
<a href="#Scroll-Lock">
<text x="0" y="0" class="key tap layer-activator">
<tspan x="0" dy="-0.9em">Scroll</tspan><tspan x="0" dy="1.2em">Lock</tspan>
</text>
</a><text x="0" y="61" class="key hold">toggle</text>
</g>
<g transform="translate(211, 195)" class="key trans keypos-5">
<rect rx="6" ry="6" x="-47" y="-63" width="94" height="126" class="key trans"/>
<text x="0" y="0" class="key trans tap">▽</text>
</g>
</g>
</g>
<g transform="translate(670, 0)" class="layer-Scroll Lock">
<text x="0" y="28" class="label" id="Scroll-Lock">Scroll Lock</text>
<g transform="translate(0, 56)">
<g transform="translate(32, 65)" class="key trans keypos-0">
<rect rx="6" ry="6" x="-30" y="-63" width="61" height="126" class="key trans"/>
<text x="0" y="0" class="key trans tap">▽</text>
</g>
<g transform="translate(98, 32)" class="key trans keypos-1">
<rect rx="6" ry="6" x="-30" y="-30" width="61" height="61" class="key trans"/>
<text x="0" y="0" class="key trans tap">▽</text>
</g>
<g transform="translate(162, 32)" class="key keypos-2">
<rect rx="6" ry="6" x="-30" y="-30" width="61" height="61" class="key"/>
<a href="#Default">
<text x="0" y="0" class="key tap layer-activator">Default</text>
</a><text x="0" y="28" class="key hold">toggle</text>
</g>
<g transform="translate(228, 65)" class="key trans keypos-3">
<rect rx="6" ry="6" x="-30" y="-63" width="61" height="126" class="key trans"/>
<text x="0" y="0" class="key trans tap">▽</text>
</g>
<g transform="translate(49, 195)" class="key trans keypos-4">
<rect rx="6" ry="6" x="-47" y="-63" width="94" height="126" class="key trans"/>
<text x="0" y="0" class="key trans tap">▽</text>
</g>
<g transform="translate(211, 195)" class="key trans keypos-5">
<rect rx="6" ry="6" x="-47" y="-63" width="94" height="126" class="key trans"/>
<text x="0" y="0" class="key trans tap">▽</text>
</g>
</g>
</g>
<g transform="translate(30, 316)" class="layer-Device">
<text x="0" y="28" class="label" id="Device">Device</text>
<g transform="translate(0, 56)">
<g transform="translate(32, 65)" class="key keypos-0">
<rect rx="6" ry="6" x="-30" y="-63" width="61" height="126" class="key"/>
<text x="0" y="0" class="key tap">BOOT</text>
</g>
<g transform="translate(98, 32)" class="key held keypos-1">
<rect rx="6" ry="6" x="-30" y="-30" width="61" height="61" class="key held"/>
</g>
<g transform="translate(162, 32)" class="key trans keypos-2">
<rect rx="6" ry="6" x="-30" y="-30" width="61" height="61" class="key trans"/>
<text x="0" y="0" class="key trans tap">▽</text>
</g>
<g transform="translate(228, 65)" class="key trans keypos-3">
<rect rx="6" ry="6" x="-30" y="-63" width="61" height="126" class="key trans"/>
<text x="0" y="0" class="key trans tap">▽</text>
</g>
<g transform="translate(49, 195)" class="key trans keypos-4">
<rect rx="6" ry="6" x="-47" y="-63" width="94" height="126" class="key trans"/>
<text x="0" y="0" class="key trans tap">▽</text>
</g>
<g transform="translate(211, 195)" class="key keypos-5">
<rect rx="6" ry="6" x="-47" y="-63" width="94" height="126" class="key"/>
<text x="0" y="0" class="key tap">BTCLR</text>
</g>
</g>
</g>
<g transform="translate(350, 316)" class="layer-Bluetooth">
<text x="0" y="28" class="label" id="Bluetooth">Bluetooth</text>
<g transform="translate(0, 56)">
<g transform="translate(32, 65)" class="key held keypos-0">
<rect rx="6" ry="6" x="-30" y="-63" width="61" height="126" class="key held"/>
</g>
<g transform="translate(98, 32)" class="key keypos-1">
<rect rx="6" ry="6" x="-30" y="-30" width="61" height="61" class="key"/>
<text x="0" y="0" class="key tap">BT</text>
<text x="0" y="28" class="key hold">0</text>
</g>
<g transform="translate(162, 32)" class="key keypos-2">
<rect rx="6" ry="6" x="-30" y="-30" width="61" height="61" class="key"/>
<text x="0" y="0" class="key tap">BT</text>
<text x="0" y="28" class="key hold">1</text>
</g>
<g transform="translate(228, 65)" class="key keypos-3">
<rect rx="6" ry="6" x="-30" y="-63" width="61" height="126" class="key"/>
<text x="0" y="0" class="key tap">BT</text>
<text x="0" y="61" class="key hold">2</text>
</g>
<g transform="translate(49, 195)" class="key keypos-4">
<rect rx="6" ry="6" x="-47" y="-63" width="94" height="126" class="key"/>
<text x="0" y="0" class="key tap">BT</text>
<text x="0" y="61" class="key hold">3</text>
</g>
<g transform="translate(211, 195)" class="key keypos-5">
<rect rx="6" ry="6" x="-47" y="-63" width="94" height="126" class="key"/>
<text x="0" y="0" class="key tap">BT</text>
<text x="0" y="61" class="key hold">4</text>
</g>
</g>
</g>
<g transform="translate(670, 316)" class="layer-Snipe">
<text x="0" y="28" class="label" id="Snipe">Snipe</text>
<g transform="translate(0, 56)">
<g transform="translate(32, 65)" class="key trans keypos-0">
<rect rx="6" ry="6" x="-30" y="-63" width="61" height="126" class="key trans"/>
<text x="0" y="0" class="key trans tap">▽</text>
</g>
<g transform="translate(98, 32)" class="key trans keypos-1">
<rect rx="6" ry="6" x="-30" y="-30" width="61" height="61" class="key trans"/>
<text x="0" y="0" class="key trans tap">▽</text>
</g>
<g transform="translate(162, 32)" class="key keypos-2">
<rect rx="6" ry="6" x="-30" y="-30" width="61" height="61" class="key"/>
<a href="#Default">
<text x="0" y="0" class="key tap layer-activator">Default</text>
</a><text x="0" y="28" class="key hold">toggle</text>
</g>
<g transform="translate(228, 65)" class="key trans keypos-3">
<rect rx="6" ry="6" x="-30" y="-63" width="61" height="126" class="key trans"/>
<text x="0" y="0" class="key trans tap">▽</text>
</g>
<g transform="translate(49, 195)" class="key trans keypos-4">
<rect rx="6" ry="6" x="-47" y="-63" width="94" height="126" class="key trans"/>
<text x="0" y="0" class="key trans tap">▽</text>
</g>
<g transform="translate(211, 195)" class="key trans keypos-5">
<rect rx="6" ry="6" x="-47" y="-63" width="94" height="126" class="key trans"/>
<text x="0" y="0" class="key trans tap">▽</text>
</g>
</g>
</g>
</svg>
